<svg width="23" height="23" viewBox="0 0 23 23" fill="none" xmlns="http://www.w3.org/2000/svg">
<path d="M6.732 3.83246V5.36469H20.944V8.3978L19.2844 13.792H6.26132L4.39132 0H0V1.53224H3.08868L4.95868 15.3242H20.3815L22.44 8.63348V3.83246H6.732Z" fill="#8D8D8D"/>
<path d="M7.52594 16.8711C6.73269 16.872 5.97218 17.1952 5.41127 17.7697C4.85036 18.3442 4.53484 19.1231 4.53394 19.9356C4.53394 20.7483 4.84916 21.5278 5.41027 22.1025C5.97138 22.6772 6.73241 23 7.52594 23C8.31946 23 9.08049 22.6772 9.6416 22.1025C10.2027 21.5278 10.5179 20.7483 10.5179 19.9356C10.517 19.1231 10.2015 18.3442 9.64062 17.7697C9.0797 17.1952 8.31919 16.872 7.52594 16.8711ZM7.52594 21.4678C7.23005 21.4678 6.94082 21.3779 6.6948 21.2096C6.44879 21.0412 6.25704 20.8019 6.14381 20.5219C6.03058 20.2419 6.00096 19.9339 6.05868 19.6366C6.1164 19.3394 6.25888 19.0664 6.4681 18.8521C6.67732 18.6378 6.94388 18.4919 7.23408 18.4328C7.52428 18.3736 7.82507 18.404 8.09843 18.52C8.37179 18.6359 8.60543 18.8323 8.76981 19.0843C8.9342 19.3363 9.02194 19.6325 9.02194 19.9356C9.02147 20.3418 8.8637 20.7312 8.58325 21.0185C8.3028 21.3057 7.92256 21.4673 7.52594 21.4678Z" fill="#8D8D8D"/>
<path d="M17.998 16.8711C17.2047 16.872 16.4442 17.1952 15.8833 17.7697C15.3224 18.3442 15.0069 19.1231 15.006 19.9356C15.006 20.7483 15.3212 21.5278 15.8823 22.1025C16.4434 22.6772 17.2045 23 17.998 23C18.7915 23 19.5525 22.6772 20.1136 22.1025C20.6748 21.5278 20.99 20.7483 20.99 19.9356C20.9891 19.1231 20.6736 18.3442 20.1127 17.7697C19.5517 17.1952 18.7912 16.872 17.998 16.8711ZM17.998 21.4678C17.7021 21.4678 17.4129 21.3779 17.1668 21.2096C16.9208 21.0412 16.7291 20.8019 16.6159 20.5219C16.5026 20.2419 16.473 19.9339 16.5307 19.6366C16.5885 19.3394 16.7309 19.0664 16.9402 18.8521C17.1494 18.6378 17.4159 18.4919 17.7061 18.4328C17.9963 18.3736 18.2971 18.404 18.5705 18.52C18.8438 18.6359 19.0775 18.8323 19.2419 19.0843C19.4062 19.3363 19.494 19.6325 19.494 19.9356C19.4935 20.3418 19.3357 20.7312 19.0553 21.0185C18.7748 21.3057 18.3946 21.4673 17.998 21.4678Z" fill="#8D8D8D"/>
</svg>
