<svg width="23" height="20" viewBox="0 0 23 20" fill="none" xmlns="http://www.w3.org/2000/svg">
<path d="M20.3767 1.74612C19.8229 1.19227 19.1653 0.752982 18.4416 0.453374C17.7179 0.153765 16.9423 -0.000293706 16.159 4.20359e-07C15.3757 0.000294546 14.6002 0.154936 13.8767 0.455088C13.1532 0.755239 12.496 1.19502 11.9425 1.74929L11.2201 2.48052L10.5037 1.75087L10.499 1.74621C9.94544 1.19262 9.28823 0.753483 8.56493 0.453879C7.84163 0.154275 7.06639 7.09558e-05 6.28349 7.09558e-05C5.5006 7.09558e-05 4.72536 0.154275 4.00206 0.453879C3.27876 0.753483 2.62155 1.19262 2.06796 1.74621L1.74612 2.06805C0.628098 3.18608 0 4.70244 0 6.28357C0 7.86469 0.628098 9.38106 1.74612 10.4991L10.2402 18.9931L11.1994 19.9981L11.2223 19.9752L11.2471 20L12.1458 19.0518L20.6986 10.4989C21.8149 9.38003 22.4419 7.864 22.4419 6.28343C22.4419 4.70286 21.8149 3.18682 20.6986 2.06791L20.3767 1.74612ZM19.6445 9.44508L11.2223 17.8675L2.79993 9.44508C1.96142 8.60656 1.49035 7.46929 1.49035 6.28345C1.49035 5.09761 1.96142 3.96034 2.79993 3.12182L3.12182 2.79998C3.95992 1.96188 5.09651 1.49084 6.28177 1.4904C7.46703 1.48995 8.60397 1.96014 9.44271 2.79761L11.2169 4.60413L12.9995 2.79998C13.4147 2.38479 13.9076 2.05543 14.4501 1.83073C14.9926 1.60603 15.574 1.49038 16.1612 1.49038C16.7484 1.49038 17.3298 1.60603 17.8723 1.83073C18.4147 2.05543 18.9076 2.38479 19.3228 2.79998L19.6447 3.12177C20.4819 3.96098 20.9521 5.09803 20.9521 6.28347C20.952 7.4689 20.4818 8.60592 19.6445 9.44508Z" fill="#8D8D8D"/>
</svg>
