<svg width="57" height="37" viewBox="0 0 57 37" fill="none" xmlns="http://www.w3.org/2000/svg">
<path d="M9.13453 13.162C7.56253 13.162 6.39853 12.808 5.64253 12.1C4.88653 11.38 4.46053 10.27 4.36453 8.77H6.66853C6.72853 9.634 6.94453 10.246 7.31653 10.606C7.70053 10.954 8.30653 11.128 9.13453 11.128C9.99853 11.128 10.6285 10.966 11.0245 10.642C11.4325 10.318 11.6365 9.922 11.6365 9.454C11.6365 8.986 11.4625 8.626 11.1145 8.374C10.7665 8.122 10.3285 7.918 9.80053 7.762C9.27253 7.594 8.70253 7.438 8.09053 7.294C7.47853 7.138 6.90853 6.928 6.38053 6.664C5.85253 6.4 5.41453 6.04 5.06653 5.584C4.71853 5.128 4.54453 4.516 4.54453 3.748C4.54453 3.244 4.64053 2.782 4.83253 2.362C5.02453 1.93 5.30653 1.558 5.67853 1.246C6.06253 0.922 6.54253 0.676 7.11853 0.508C7.69453 0.327999 8.36653 0.237999 9.13453 0.237999C10.6705 0.237999 11.7925 0.573999 12.5005 1.246C13.2205 1.906 13.6285 2.914 13.7245 4.27H11.4205C11.3605 3.55 11.1565 3.034 10.8085 2.722C10.4725 2.41 9.90853 2.254 9.11653 2.254C8.30053 2.254 7.71253 2.404 7.35253 2.704C6.99253 2.992 6.81253 3.346 6.81253 3.766C6.81253 4.21 6.98653 4.552 7.33453 4.792C7.68253 5.02 8.12053 5.212 8.64853 5.368C9.17653 5.524 9.74653 5.68 10.3585 5.836C10.9705 5.98 11.5405 6.19 12.0685 6.466C12.5965 6.73 13.0345 7.102 13.3825 7.582C13.7305 8.05 13.9045 8.686 13.9045 9.49C13.9045 10.03 13.8085 10.528 13.6165 10.984C13.4245 11.428 13.1305 11.812 12.7345 12.136C12.3505 12.46 11.8585 12.712 11.2585 12.892C10.6585 13.072 9.95053 13.162 9.13453 13.162ZM14.3693 4H15.9893V1.48H18.0773V4H20.3093V5.836H18.0773V9.814C18.0773 10.282 18.1793 10.624 18.3833 10.84C18.5993 11.056 18.9173 11.164 19.3373 11.164H20.4893V13H18.9593C17.9993 13 17.2613 12.748 16.7453 12.244C16.2413 11.728 15.9893 10.99 15.9893 10.03V5.836H14.3693V4ZM21.9356 4H23.5736L23.7356 5.008C24.0476 4.624 24.4316 4.336 24.8876 4.144C25.3556 3.94 25.8716 3.838 26.4356 3.838H27.3356V5.782H26.4356C25.6076 5.782 24.9956 5.962 24.5996 6.322C24.2156 6.682 24.0236 7.168 24.0236 7.78V13H21.9356V4ZM32.2877 13.162C31.6397 13.162 31.0577 13.066 30.5417 12.874C30.0257 12.67 29.5817 12.382 29.2097 12.01C28.8377 11.626 28.5497 11.164 28.3457 10.624C28.1537 10.084 28.0577 9.472 28.0577 8.788V8.212C28.0577 7.528 28.1537 6.916 28.3457 6.376C28.5497 5.836 28.8377 5.38 29.2097 5.008C29.5817 4.624 30.0257 4.336 30.5417 4.144C31.0577 3.94 31.6397 3.838 32.2877 3.838C33.5957 3.838 34.6277 4.24 35.3837 5.044C36.1397 5.848 36.5177 7 36.5177 8.5V9.202H30.1457C30.2057 9.958 30.4157 10.504 30.7757 10.84C31.1357 11.164 31.6397 11.326 32.2877 11.326C32.9237 11.326 33.3857 11.218 33.6737 11.002C33.9737 10.774 34.1717 10.51 34.2677 10.21H36.4277C36.3317 10.63 36.1817 11.02 35.9777 11.38C35.7737 11.74 35.5037 12.052 35.1677 12.316C34.8317 12.58 34.4237 12.79 33.9437 12.946C33.4637 13.09 32.9117 13.162 32.2877 13.162ZM32.2877 5.674C31.6757 5.674 31.1957 5.824 30.8477 6.124C30.4997 6.424 30.2777 6.898 30.1817 7.546H34.3937C34.3097 6.874 34.0877 6.394 33.7277 6.106C33.3797 5.818 32.8997 5.674 32.2877 5.674ZM42.0084 13.162C41.3604 13.162 40.7784 13.066 40.2624 12.874C39.7464 12.67 39.3024 12.382 38.9304 12.01C38.5584 11.626 38.2704 11.164 38.0664 10.624C37.8744 10.084 37.7784 9.472 37.7784 8.788V8.212C37.7784 7.528 37.8744 6.916 38.0664 6.376C38.2704 5.836 38.5584 5.38 38.9304 5.008C39.3024 4.624 39.7464 4.336 40.2624 4.144C40.7784 3.94 41.3604 3.838 42.0084 3.838C43.3164 3.838 44.3484 4.24 45.1044 5.044C45.8604 5.848 46.2384 7 46.2384 8.5V9.202H39.8664C39.9264 9.958 40.1364 10.504 40.4964 10.84C40.8564 11.164 41.3604 11.326 42.0084 11.326C42.6444 11.326 43.1064 11.218 43.3944 11.002C43.6944 10.774 43.8924 10.51 43.9884 10.21H46.1484C46.0524 10.63 45.9024 11.02 45.6984 11.38C45.4944 11.74 45.2244 12.052 44.8884 12.316C44.5524 12.58 44.1444 12.79 43.6644 12.946C43.1844 13.09 42.6324 13.162 42.0084 13.162ZM42.0084 5.674C41.3964 5.674 40.9164 5.824 40.5684 6.124C40.2204 6.424 39.9984 6.898 39.9024 7.546H44.1144C44.0304 6.874 43.8084 6.394 43.4484 6.106C43.1004 5.818 42.6204 5.674 42.0084 5.674ZM46.9591 4H48.5791V1.48H50.6671V4H52.8991V5.836H50.6671V9.814C50.6671 10.282 50.7691 10.624 50.9731 10.84C51.1891 11.056 51.5071 11.164 51.9271 11.164H53.0791V13H51.5491C50.5891 13 49.8511 12.748 49.3351 12.244C48.8311 11.728 48.5791 10.99 48.5791 10.03V5.836H46.9591V4ZM6.17859 29.484H11.4886V30.42C11.4886 32.316 11.0326 33.75 10.1206 34.722C9.20859 35.682 7.95459 36.162 6.35859 36.162C5.50659 36.162 4.74459 36.036 4.07259 35.784C3.40059 35.52 2.82459 35.136 2.34459 34.632C1.86459 34.128 1.49859 33.504 1.24659 32.76C0.994594 32.016 0.868594 31.158 0.868594 30.186V29.214C0.868594 27.282 1.34859 25.806 2.30859 24.786C3.26859 23.754 4.61859 23.238 6.35859 23.238C7.07859 23.238 7.72659 23.346 8.30259 23.562C8.89059 23.766 9.39459 24.054 9.81459 24.426C10.2466 24.786 10.5946 25.212 10.8586 25.704C11.1226 26.196 11.3026 26.718 11.3986 27.27H9.05859C8.87859 26.694 8.56659 26.214 8.12259 25.83C7.69059 25.446 7.10259 25.254 6.35859 25.254C5.31459 25.254 4.51659 25.572 3.96459 26.208C3.41259 26.832 3.13659 27.834 3.13659 29.214V30.186C3.13659 31.518 3.43059 32.514 4.01859 33.174C4.61859 33.822 5.39859 34.146 6.35859 34.146C7.27059 34.146 7.97859 33.93 8.48259 33.498C8.99859 33.066 9.31059 32.34 9.41859 31.32H6.17859V29.484ZM13.463 27H15.101L15.263 28.008C15.575 27.624 15.959 27.336 16.415 27.144C16.883 26.94 17.399 26.838 17.963 26.838H18.863V28.782H17.963C17.135 28.782 16.523 28.962 16.127 29.322C15.743 29.682 15.551 30.168 15.551 30.78V36H13.463V27ZM23.9051 36.162C22.5491 36.162 21.4871 35.778 20.7191 35.01C19.9631 34.242 19.5851 33.168 19.5851 31.788V31.212C19.5851 30.528 19.6811 29.916 19.8731 29.376C20.0771 28.836 20.3651 28.38 20.7371 28.008C21.1211 27.624 21.5771 27.336 22.1051 27.144C22.6331 26.94 23.2331 26.838 23.9051 26.838C25.2611 26.838 26.3171 27.222 27.0731 27.99C27.8411 28.758 28.2251 29.832 28.2251 31.212V31.788C28.2251 32.472 28.1231 33.084 27.9191 33.624C27.7271 34.164 27.4391 34.626 27.0551 35.01C26.6831 35.382 26.2271 35.67 25.6871 35.874C25.1591 36.066 24.5651 36.162 23.9051 36.162ZM23.9051 34.218C24.5891 34.218 25.1111 34.02 25.4711 33.624C25.8431 33.228 26.0291 32.616 26.0291 31.788V31.212C26.0291 30.396 25.8371 29.79 25.4531 29.394C25.0811 28.986 24.5651 28.782 23.9051 28.782C23.2211 28.782 22.6931 28.98 22.3211 29.376C21.9611 29.772 21.7811 30.384 21.7811 31.212V31.788C21.7811 32.604 21.9671 33.216 22.3391 33.624C22.7231 34.02 23.2451 34.218 23.9051 34.218ZM33.8016 36.162C32.4456 36.162 31.3836 35.778 30.6156 35.01C29.8596 34.242 29.4816 33.168 29.4816 31.788V31.212C29.4816 30.528 29.5776 29.916 29.7696 29.376C29.9736 28.836 30.2616 28.38 30.6336 28.008C31.0176 27.624 31.4736 27.336 32.0016 27.144C32.5296 26.94 33.1296 26.838 33.8016 26.838C35.1576 26.838 36.2136 27.222 36.9696 27.99C37.7376 28.758 38.1216 29.832 38.1216 31.212V31.788C38.1216 32.472 38.0196 33.084 37.8156 33.624C37.6236 34.164 37.3356 34.626 36.9516 35.01C36.5796 35.382 36.1236 35.67 35.5836 35.874C35.0556 36.066 34.4616 36.162 33.8016 36.162ZM33.8016 34.218C34.4856 34.218 35.0076 34.02 35.3676 33.624C35.7396 33.228 35.9256 32.616 35.9256 31.788V31.212C35.9256 30.396 35.7336 29.79 35.3496 29.394C34.9776 28.986 34.4616 28.782 33.8016 28.782C33.1176 28.782 32.5896 28.98 32.2176 29.376C31.8576 29.772 31.6776 30.384 31.6776 31.212V31.788C31.6776 32.604 31.8636 33.216 32.2356 33.624C32.6196 34.02 33.1416 34.218 33.8016 34.218ZM38.4865 27H40.7545L43.0945 33.732L45.3265 27H47.4865L44.3365 36H41.8165L38.4865 27ZM52.0807 36.162C51.4327 36.162 50.8507 36.066 50.3347 35.874C49.8187 35.67 49.3747 35.382 49.0027 35.01C48.6307 34.626 48.3427 34.164 48.1387 33.624C47.9467 33.084 47.8507 32.472 47.8507 31.788V31.212C47.8507 30.528 47.9467 29.916 48.1387 29.376C48.3427 28.836 48.6307 28.38 49.0027 28.008C49.3747 27.624 49.8187 27.336 50.3347 27.144C50.8507 26.94 51.4327 26.838 52.0807 26.838C53.3887 26.838 54.4207 27.24 55.1767 28.044C55.9327 28.848 56.3107 30 56.3107 31.5V32.202H49.9387C49.9987 32.958 50.2087 33.504 50.5687 33.84C50.9287 34.164 51.4327 34.326 52.0807 34.326C52.7167 34.326 53.1787 34.218 53.4667 34.002C53.7667 33.774 53.9647 33.51 54.0607 33.21H56.2207C56.1247 33.63 55.9747 34.02 55.7707 34.38C55.5667 34.74 55.2967 35.052 54.9607 35.316C54.6247 35.58 54.2167 35.79 53.7367 35.946C53.2567 36.09 52.7047 36.162 52.0807 36.162ZM52.0807 28.674C51.4687 28.674 50.9887 28.824 50.6407 29.124C50.2927 29.424 50.0707 29.898 49.9747 30.546H54.1867C54.1027 29.874 53.8807 29.394 53.5207 29.106C53.1727 28.818 52.6927 28.674 52.0807 28.674Z" fill="black"/>
</svg>
