<?xml version="1.0" encoding="UTF-8"?>
<svg width="113px" height="60px" viewBox="0 0 113 60" version="1.1" xmlns="http://www.w3.org/2000/svg" xmlns:xlink="http://www.w3.org/1999/xlink">
    <!-- Generator: Sketch 58 (84663) - https://sketch.com -->
    <title>Brand / Vans</title>
    <desc>Created with Sketch.</desc>
    <g id="Brand-/-Vans" stroke="none" stroke-width="1" fill="none" fill-rule="evenodd">
        <g id="VANS_LOGO_BLACK-(1)" transform="translate(10.000000, 12.000000)" fill="#003B44">
            <path d="M9.024,29.8431 C11.3202,29.8431 13.0211,31.5251 13.0211,33.6258 L13.0211,33.6258 L13.0211,33.6468 C13.0211,35.7469 11.29895,37.45 9.00255,37.45 C6.70655,37.45 5.00565,35.7679 5.00565,33.6673 L5.00565,33.6673 L5.00565,33.6468 C5.00565,31.5462 6.72765,29.8431 9.024,29.8431 Z M62.933,29.9686 L64.3685,34.221 L65.665,29.989 L67.802,29.989 L65.3145,37.35625 L63.518,37.35625 L62.019,33.14475 L60.531,37.35625 L58.7345,37.35625 L56.247,29.989 L58.4265,29.989 L59.7225,34.221 L61.1585,29.9686 L62.933,29.9686 Z M85.095,29.989 L85.095,35.52765 L88.699,35.52765 L88.699,37.30405 L83.033,37.30405 L83.033,29.989 L85.095,29.989 Z M78.2815,29.989 L78.2815,35.52765 L81.8855,35.52765 L81.8855,37.30405 L76.2195,37.30405 L76.2195,29.989 L78.2815,29.989 Z M72.0635,29.93675 L75.2315,37.30405 L73.0205,37.30405 L72.4785,35.9979 L69.608,35.9979 L69.077,37.30405 L66.9075,37.30405 L70.076,29.93675 L72.0635,29.93675 Z M53.016,29.989 L53.016,31.7132 L49.07235,31.7132 L49.07235,32.8211 L52.644,32.8211 L52.644,34.41965 L49.07235,34.41965 L49.07235,35.5799 L53.069,35.5799 L53.069,37.30405 L47.03075,37.30405 L47.03075,29.989 L53.016,29.989 Z M40.9241,29.989 L40.9241,32.72735 L43.5711,32.72735 L43.5711,29.989 L45.6334,29.989 L45.6334,37.30405 L43.5711,37.30405 L43.5711,34.52415 L40.9241,34.52415 L40.9241,37.30405 L38.86145,37.30405 L38.86145,29.989 L40.9241,29.989 Z M37.5079,29.989 L37.5079,31.76535 L35.2755,31.76535 L35.2755,37.30405 L33.2135,37.30405 L33.2135,31.76535 L30.98095,31.76535 L30.98095,29.989 L37.5079,29.989 Z M27.41025,29.989 L27.41025,31.76535 L23.51955,31.76535 L23.51955,33.0091 L27.0381,33.0091 L27.0381,34.69125 L23.51955,34.69125 L23.51955,37.30405 L21.45715,37.30405 L21.45715,29.989 L27.41025,29.989 Z M20.25665,29.989 L20.25665,31.76535 L16.3657,31.76535 L16.3657,33.0091 L19.8843,33.0091 L19.8843,34.69125 L16.3657,34.69125 L16.3657,37.30405 L14.3037,37.30405 L14.3037,29.989 L20.25665,29.989 Z M9.00255,31.6712 C7.87605,31.6712 7.1212,32.57015 7.1212,33.6258 L7.1212,33.6258 L7.1212,33.6468 C7.1212,34.702 7.89705,35.6213 9.024,35.6213 C10.16125,35.6213 10.916,34.72295 10.916,33.6673 L10.916,33.6673 L10.916,33.6468 C10.916,32.59105 10.14025,31.6712 9.00255,31.6712 Z M71.0535,32.34065 L70.214,34.41965 L71.883,34.41965 L71.0535,32.34065 Z M1.3919,29.9554 L1.6577,32.94125 L0.2659,32.94125 L6.82121026e-13,29.9554 L1.3919,29.9554 Z M92.0155,29.9554 L91.75,32.94125 L90.3585,32.94125 L90.624,29.9554 L92.0155,29.9554 Z M89.8015,29.9554 L89.5355,32.94125 L88.144,32.94125 L88.41,29.9554 L89.8015,29.9554 Z M3.60605,29.9554 L3.87215,32.94125 L2.48025,32.94125 L2.21435,29.9554 L3.60605,29.9554 Z M72.667,6.5352 C75.121,6.5352 76.5215,7.236 77.6265,7.99565 C78.605,8.6695 79.7675,10.294 79.7675,11.58405 L75.768,11.58405 C75.3805,10.6016 74.948,9.8355 72.7055,9.8355 C71.158,9.8355 70.4985,10.4733 70.4985,11.1138 C70.4985,11.81305 71.049,12.403 72.7575,12.7814 L76.38,13.7481 C78.751,14.3819 79.902,16.2638 79.902,18.2521 C79.902,19.3586 79.6625,20.69565 78.613,21.7883 C77.8275,22.6052 76.641,23.6834 72.7055,23.6834 C67.2935,23.6834 65.515,20.2625 65.515,18.19495 L69.729,18.19495 C70.143,19.7044 71.1785,20.27915 73.231,20.27915 C74.652,20.27915 75.8725,19.7723 75.8725,18.6846 C75.8725,17.65045 74.9895,17.2614 73.8475,16.94925 L70.985,16.1768 C69.605,15.7569 68.451,15.42055 67.6375,14.73005 C65.5045,12.9238 65.66,9.6607 67.9785,7.964 C69.2625,7.02555 70.579,6.5352 72.667,6.5352 Z M80.482,21.74495 C80.9765,21.74495 81.362,22.1419 81.362,22.62485 C81.362,23.10715 80.972,23.509 80.4775,23.509 C79.9825,23.509 79.598,23.11165 79.598,22.6297 C79.598,22.1472 79.988,21.74495 80.482,21.74495 Z M41.24755,6.89265 L47.26135,23.48665 L42.5615,23.48665 L41.64745,20.89095 L35.3297,20.89095 L34.43895,23.48665 L29.66565,23.48665 L36.192,6.89265 L41.24755,6.89265 Z M53.36,6.89265 L58.995,15.91765 L58.995,6.89265 L63.4825,6.89265 L63.4825,23.48665 L59.5945,23.48665 L53.382,15.09675 L53.382,23.48665 L49.06405,23.48665 L49.06405,6.89265 L53.36,6.89265 Z M17.48585,0.0186 L23.2115,16.111 L29.5708,0.0186 L81.1835,0.0186 L80.8225,4.07815 L33.2286,4.07815 L25.5657,23.48665 L20.5908,23.48665 C20.5908,23.48665 12.25205,0.16175 12.21935,0.0186 L12.21935,0.0186 L17.48585,0.0186 Z M80.482,21.8426 C80.036,21.8426 79.7005,22.19565 79.7005,22.6297 C79.7005,23.0632 80.0345,23.41145 80.4775,23.41145 C80.923,23.41145 81.2595,23.0584 81.2595,22.62485 C81.2595,22.19125 80.9255,21.8426 80.482,21.8426 Z M80.533,22.13265 C80.7575,22.13265 80.901,22.2468 80.901,22.4422 C80.901,22.59565 80.8185,22.69085 80.699,22.7346 L80.699,22.7346 L80.9275,23.07065 L80.6865,23.07065 L80.487,22.7684 L80.3235,22.7684 L80.3235,23.07065 L80.117,23.07065 L80.117,22.13265 Z M80.526,22.31515 L80.3235,22.31515 L80.3235,22.59065 L80.531,22.59065 C80.6355,22.59065 80.6915,22.535 80.6915,22.4543 C80.6915,22.36165 80.628,22.31515 80.526,22.31515 L80.526,22.31515 Z M38.512,12.3721 L36.66365,17.88825 L40.337,17.88825 L38.512,12.3721 Z" id="Combined-Shape"></path>
        </g>
    </g>
</svg>