<?xml version="1.0" encoding="UTF-8"?>
<svg width="83px" height="60px" viewBox="0 0 83 60" version="1.1" xmlns="http://www.w3.org/2000/svg" xmlns:xlink="http://www.w3.org/1999/xlink">
    <!-- Generator: Sketch 51.3 (57544) - http://www.bohemiancoding.com/sketch -->
    <title>Brand / Converse</title>
    <desc>Created with Sketch.</desc>
    <defs>
        <polygon id="path-1" points="0 0 73 0 73 49 0 49"></polygon>
    </defs>
    <g id="Brand-/-Converse" stroke="none" stroke-width="1" fill="none" fill-rule="evenodd">
        <g id="Group-3" transform="translate(5.000000, 5.000000)">
            <mask id="mask-2" fill="white">
                <use xlink:href="#path-1"></use>
            </mask>
            <g id="Clip-2"></g>
            <path d="M43.6202546,17.6012811 L27.464038,35.2025621 L41.2816169,35.2025621 L57.4378335,17.6012811 L41.2816169,0 L27.464038,0 L43.6202546,17.6012811 Z M27.464038,15.2153728 L34.8194084,17.6012811 L27.464038,19.9871893 L27.464038,27.7073662 L22.917537,21.4606751 L15.5621665,23.8465833 L20.1086675,17.6012811 L15.5621665,11.35459 L22.917537,13.741887 L27.464038,7.49519599 L27.464038,15.2153728 Z M40.0239556,40.5215543 L46.575202,40.5215543 L46.575202,42.7005357 L42.2081682,42.7005357 L42.2081682,43.5726837 L46.1383595,43.5726837 L46.1383595,45.5350169 L42.2081682,45.5350169 L42.2081682,46.515489 L46.575202,46.515489 L46.575202,48.6958592 L40.0239556,48.6958592 L40.0239556,40.5215543 Z M15.7026795,44.6281495 C15.7026795,43.4851912 14.7733458,42.5574923 13.6283732,42.5574923 C12.4820095,42.5574923 11.5540669,43.4851912 11.5540669,44.6281495 C11.5540669,45.7711079 12.4820095,46.6988068 13.6283732,46.6988068 C14.7733458,46.6988068 15.7026795,45.7711079 15.7026795,44.6281495 Z M18.0566207,44.6281495 C18.0566207,47.0210016 16.0699611,48.9680583 13.6283732,48.9680583 C11.1853941,48.9680583 9.19873456,47.0210016 9.19873456,44.6281495 C9.19873456,42.2352975 11.1853941,40.2882408 13.6283732,40.2882408 C16.0699611,40.2882408 18.0566207,42.2352975 18.0566207,44.6281495 Z M64.6262578,46.2294023 L64.6262578,46.2544001 C64.6262578,47.9764759 63.1821733,49 61.1301265,49 C59.6331758,49 58.1292689,48.5305955 57.0914202,47.6042853 L58.4130775,46.0488621 C59.2450259,46.7126945 60.2105313,47.061276 61.1871665,47.061276 C61.8146059,47.061276 62.223624,46.8446277 62.223624,46.4835473 L62.223624,46.4585494 C62.223624,46.109968 61.9036438,45.9169288 60.7572801,45.6516736 C58.958435,45.2419862 57.5296539,44.7364737 57.5296539,43.0018989 L57.5296539,42.9769011 C57.5296539,41.4117564 58.7497522,40.2799082 60.7767571,40.2799082 C62.2124943,40.2799082 63.3129479,40.6645977 64.2297606,41.4006462 L62.9178419,42.9463481 C62.0886759,42.4575008 61.4765399,42.220021 60.7294557,42.220021 C60.1618387,42.220021 59.9308965,42.4588896 59.9308965,42.7602528 L59.9308965,42.7852507 C59.9308965,43.1699402 60.2633976,43.3393702 61.4334121,43.6046255 C63.3769439,44.025423 64.6262578,44.6531474 64.6262578,46.2294023 Z M66.4501448,40.5215543 L73,40.5215543 L73,42.7005357 L68.6329662,42.7005357 L68.6329662,43.5726837 L72.5631575,43.5726837 L72.5631575,45.5350169 L68.6329662,45.5350169 L68.6329662,46.515489 L73,46.515489 L73,48.6958592 L66.4501448,48.6958592 L66.4501448,40.5215543 Z M53.340696,43.1379985 C53.340696,42.874132 53.1250572,42.7005357 52.8579433,42.7005357 L50.9311061,42.7005357 L50.9311061,43.5726837 L52.8579433,43.5726837 C53.1250572,43.5726837 53.340696,43.3990874 53.340696,43.1379985 Z M56.0299207,48.6958592 L53.5688558,48.6958592 L52.1623342,45.8488791 C52.1066855,45.7683304 52.0148651,45.7530539 51.9160886,45.7530539 L50.9311061,45.7530539 L50.9311061,48.6958592 L48.7482848,48.6958592 L48.7482848,40.5215543 L52.9275042,40.5215543 C54.3451555,40.5215543 55.5332558,41.5770201 55.6348148,42.9352379 C55.7099405,43.9420968 55.2049283,44.8545192 54.3368082,45.358643 L56.0299207,48.6958592 Z M35.8169119,40.5215543 L38.3280607,40.5215543 L35.658313,48.6958592 L32.0842735,48.6958592 L29.4145258,40.5215543 L31.9242834,40.5215543 L33.7426056,46.328005 C33.7676475,46.4071649 33.834426,46.41272 33.8705977,46.41272 C33.9081605,46.41272 33.9985897,46.4071649 33.9985897,46.328005 L33.9985897,46.3418927 L35.8169119,40.5215543 Z M25.5399832,40.5215543 L27.7241958,40.5215543 L27.7241958,48.6958592 L25.2269591,48.6958592 L21.9381194,44.1184707 L21.9381194,48.6958592 L19.7539068,48.6958592 L19.7539068,40.5215543 L21.9965505,40.5215543 L25.5399832,45.1392172 L25.5399832,40.5215543 Z M2.40541622,44.6267608 C2.40541622,45.7613865 3.38483382,46.7210271 4.54371855,46.7210271 C5.17115795,46.7210271 5.77633786,46.4279965 6.20205062,45.9183176 L6.35508462,45.7349999 L8.30835493,47.0751637 L8.12888779,47.2945895 C7.26355008,48.3569991 5.95719622,48.9666695 4.54371855,48.9666695 C2.03813462,48.9666695 0,47.0196128 0,44.6267608 C0,42.2339087 2.03813462,40.286852 4.54371855,40.286852 C5.96971718,40.286852 7.28302714,40.904855 8.14836484,41.9825412 L8.32365833,42.201967 L6.37177923,43.5421308 L6.21874524,43.3546467 C5.79720613,42.8408015 5.17254917,42.5338832 4.54371855,42.5338832 C3.38483382,42.5338832 2.40541622,43.492135 2.40541622,44.6267608 Z" id="Fill-1" fill="#003B44" mask="url(#mask-2)"></path>
        </g>
    </g>
</svg>